<?xml version="1.0" encoding="iso-8859-1"?>
<!-- Uploaded to: SVG Repo, www.svgrepo.com, Generator: SVG Repo Mixer Tools -->
<svg version="1.1" id="Layer_1" xmlns="http://www.w3.org/2000/svg" xmlns:xlink="http://www.w3.org/1999/xlink" 
	 viewBox="0 0 512 512" xml:space="preserve">
<polygon style="fill:#999999;" points="510.438,503.981 0.839,503.981 0.839,0 510.885,3.296 "/>
<polygon style="fill:#FFFFFF;" points="510.438,186.967 486.589,186.967 486.589,114.453 510.885,114.453 "/>
<rect x="81.162" y="106.507" style="fill:#AA603B;" width="349.783" height="286.178"/>
<g>
	<rect x="81.162" y="297.289" style="fill:#F2BF7E;" width="349.783" height="47.697"/>
	<rect x="81.162" y="201.893" style="fill:#F2BF7E;" width="349.783" height="47.697"/>
	<rect x="81.162" y="106.507" style="fill:#F2BF7E;" width="349.783" height="47.697"/>
</g>
<path style="fill:#C5FFCA;" d="M80.765,503.669l0.397-396.747h349.817v396.747h31.24V75.683H48.811v427.987H80.765z"/>
<rect x="81.162" y="392.685" style="fill:#FFFFFF;" width="349.783" height="111.297"/>
<g>
	<rect x="144.755" y="464.235" style="fill:#F2F2F2;" width="47.697" height="23.849"/>
	<rect x="319.646" y="464.235" style="fill:#F2F2F2;" width="47.697" height="23.849"/>
</g>
<rect x="136.809" y="392.685" style="fill:#FFFFFF;" width="238.485" height="47.697"/>
<g>
	<rect x="311.701" y="392.685" style="fill:#F2BF7E;" width="63.594" height="23.849"/>
	<rect x="136.809" y="392.685" style="fill:#F2BF7E;" width="63.594" height="23.849"/>
</g>
<rect x="128.864" y="440.389" style="fill:#C5FFCA;" width="254.386" height="23.849"/>
<polygon points="469.508,489.091 453.888,489.091 453.888,82.972 57.141,82.972 57.141,489.091 41.521,489.091 41.521,67.352 
	469.508,67.352 "/>
<rect x="120.658" y="146.494" width="270.746" height="15.62"/>
<rect x="120.658" y="193.354" width="270.746" height="15.62"/>
<rect x="120.658" y="242.297" width="270.746" height="15.62"/>
<rect x="120.658" y="290.198" width="270.746" height="15.62"/>
<rect x="120.658" y="337.058" width="270.746" height="15.62"/>
<g>
	<rect x="160.229" y="383.917" style="fill:#FFFFFF;" width="16.661" height="15.62"/>
	<rect x="335.172" y="383.917" style="fill:#FFFFFF;" width="16.661" height="15.62"/>
</g>
<path d="M375.788,496.38v-24.338h15.267v-39.468h-7.978v-33.038h40.612v89.554h15.62V99.632H73.803V489.09h15.62v-89.554h39.571
	v33.038h-7.943v39.468h15.233v24.338H0.91V512h509.21v-15.62H375.788z M89.423,383.916v-31.24h15.62v-15.62h-15.62v-31.24h15.62
	v-15.62h-15.62v-32.281h15.62v-15.62h-15.62v-33.323h15.62v-15.62h-15.62v-31.24h15.62v-15.62h-15.62v-31.24H423.69v31.24h-17.703
	v15.62h17.703v31.24h-17.703v15.62h17.703v33.323h-17.703v15.62h17.703v32.281h-17.703v15.62h17.703v31.24h-17.703v15.62h17.703
	v31.24h-63.521v15.62h7.289v33.038H144.613v-33.038h8.331v-15.62H89.423z M184.184,480.76h-32.281v-8.718h32.281V480.76z
	 M312.267,496.38H199.804v-24.338h112.464V496.38z M360.168,480.76h-32.281v-8.718h32.281V480.76z M375.435,456.423H136.669v-8.229
	h238.767V456.423z"/>
<polygon points="360.168,425.57 360.168,409.95 319.557,409.95 319.557,399.536 326.846,399.536 326.846,383.916 185.225,383.916 
	185.225,399.536 192.514,399.536 192.514,409.95 152.944,409.95 152.944,425.57 208.134,425.57 208.134,399.536 303.937,399.536 
	303.937,425.57 "/>
<rect x="216.461" y="409.951" width="79.141" height="15.62"/>
<polygon points="511.161,193.353 479.921,193.353 479.921,106.923 511.161,106.923 511.161,122.543 495.541,122.543 
	495.541,177.733 511.161,177.733 "/>
</svg>