<?xml version="1.0" encoding="iso-8859-1"?>
<!-- Uploaded to: SVG Repo, www.svgrepo.com, Generator: SVG Repo Mixer Tools -->
<svg height="800px" width="800px" version="1.1" id="Layer_1" xmlns="http://www.w3.org/2000/svg" xmlns:xlink="http://www.w3.org/1999/xlink" 
	 viewBox="0 0 511.999 511.999" xml:space="preserve">
<path style="fill:#EE8700;" d="M300.636,161.765l6.804,332.998c0.194,9.462-7.424,17.237-16.888,17.237h-64.045
	c-9.464,0-17.082-7.775-16.888-17.237l6.804-332.999l2.721-133.168l0.246-12.049C219.577,7.354,227.083,0,236.277,0h44.503
	c9.194,0,16.7,7.354,16.888,16.546l0.246,12.049L300.636,161.765z"/>
<g>
	<path style="opacity:0.53;fill:#AA6100;enable-background:new    ;" d="M300.612,161.765l-2.721-133.169l-0.246-12.049
		c-0.178-8.709-6.926-15.756-15.453-16.475l0.045,2.216l2.721,133.169l6.804,332.998c0.194,9.462-7.424,17.237-16.888,17.237
		h-64.045c-0.354,0-0.699-0.032-1.047-0.053l-0.186,9.125c-0.194,9.462,7.424,17.237,16.888,17.237h64.045
		c9.464,0,17.082-7.775,16.888-17.237L300.612,161.765z"/>
	<path style="fill:#AA6100;" d="M240.875,156.548c-10.246,0-19.287,5.243-24.591,13.184l-0.649,31.728
		c5.195,8.505,14.565,14.195,25.24,14.195c16.296,0,29.554-13.257,29.554-29.554C270.429,169.805,257.17,156.548,240.875,156.548z
		 M240.875,199.962c-7.643,0-13.861-6.218-13.861-13.862c0-7.643,6.218-13.861,13.861-13.861c7.644,0,13.862,6.218,13.862,13.861
		C254.737,193.744,248.518,199.962,240.875,199.962z"/>
	<path style="fill:#AA6100;" d="M214.124,274.277c11.273-2.925,71.21-20.747,79.66-70.55c0.635-3.739,3.814-6.41,7.462-6.531
		l0.761,31.659c-8.589,17.561-23.571,32.686-44.253,44.472c-21.409,12.2-41.315,16.557-42.152,16.737
		c-0.554,0.119-1.108,0.177-1.653,0.177L214.124,274.277z"/>
	<path style="fill:#AA6100;" d="M266.969,511.997c-14.058-38.29-13.468-85.139,1.748-135.738
		c11.671-38.811,27.588-65.927,28.261-67.062c1.434-2.424,3.969-3.793,6.593-3.85l0.49,23.995
		c-5.588,11.301-13.806,29.691-20.424,51.797c-10.09,33.702-18.448,83.265-0.969,128.006c0.367,0.938,0.541,1.905,0.541,2.855
		L266.969,511.997z"/>
	<path style="fill:#AA6100;" d="M211.571,404.956c19.403-63.775,63.02-107.786,84.691-126.562c0.495-0.429,0.88-0.759,1.14-0.991
		c1.398-1.541,3.402-2.524,5.645-2.571l0.376,18.164c-28.158,25.203-85.85,87.725-85.85,176.675c0,4.334-3.151,7.846-7.484,7.846
		L211.571,404.956z M295.369,282.841h0.01H295.369z M295.368,282.825L295.368,282.825L295.368,282.825z"/>
</g>
<path style="fill:#3E3B43;" d="M396.134,157.13c0,2.56-2.074,4.634-4.634,4.634h-90.863h-86.68H141.46
	c-1.279,0-2.502-0.529-3.378-1.461l-48.363-51.487c-7.2-7.665-7.2-19.607,0-27.273l48.363-51.487
	c0.876-0.932,2.099-1.461,3.378-1.461h77.683h78.772H391.5c2.56,0,4.634,2.074,4.634,4.634V157.13z"/>
<path style="opacity:0.29;enable-background:new    ;" d="M138.07,160.177c0.88,1.008,2.153,1.587,3.492,1.587h72.395h86.68h90.863
	c2.56,0,4.634-2.074,4.634-4.634V33.23c0-2.56-2.074-4.634-4.634-4.634h-13.943v85.92c0,14.337-11.622,25.959-25.959,25.959H282.06
	h-86.68h-74.502L138.07,160.177z"/>
<path style="fill:#3E3B43;" d="M423.879,134.709h-27.745V45.803h27.745c2.1,0,3.802,1.702,3.802,3.802v81.302
	C427.68,133.007,425.978,134.709,423.879,134.709z"/>
<path style="opacity:0.38;enable-background:new    ;" d="M270.036,161.326l80.913-132.73H243.421L166.804,154.28
	c-1.883,3.088,0.34,7.047,3.957,7.047H270.036z"/>
<polygon style="opacity:0.38;enable-background:new    ;" points="419.451,134.709 396.134,134.709 396.134,45.803 411.907,45.803 
	"/>
</svg>